<svg width="56" height="22" viewBox="0 0 56 22" fill="none" xmlns="http://www.w3.org/2000/svg">
<path d="M29.8174 8.15616L26.9517 3.15441C26.7671 2.83214 26.5007 2.56433 26.1794 2.37809C25.8581 2.19184 25.4933 2.09375 25.1219 2.09375H24.532C24.4876 2.09381 24.4436 2.10356 24.4033 2.12234C24.363 2.14112 24.3273 2.16846 24.2986 2.20246C24.27 2.23647 24.2491 2.27631 24.2374 2.31922C24.2257 2.36213 24.2235 2.40707 24.231 2.45091L25.21 8.15616H22.1988L21.0079 6.489C20.9104 6.35247 20.7817 6.24119 20.6325 6.1644C20.4833 6.08761 20.318 6.04754 20.1502 6.0475H19.3748C19.343 6.04759 19.3117 6.05476 19.2831 6.06849C19.2544 6.08221 19.2292 6.10215 19.2093 6.12684C19.1894 6.15153 19.1752 6.18036 19.1678 6.21123C19.1604 6.2421 19.1599 6.27423 19.1665 6.30528L19.8972 9.72106C19.8981 9.7244 19.8996 9.7273 19.9019 9.72976V9.74557C19.8998 9.74814 19.8982 9.7511 19.8972 9.75427L19.1663 13.17C19.1597 13.2011 19.1601 13.2333 19.1675 13.2642C19.175 13.2951 19.1892 13.324 19.2092 13.3487C19.2292 13.3734 19.2545 13.3933 19.2832 13.407C19.3119 13.4207 19.3432 13.4278 19.375 13.4278H20.1505C20.3183 13.4278 20.4836 13.3877 20.6328 13.3109C20.782 13.2341 20.9107 13.1229 21.0082 12.9863L22.1988 11.3192H25.21L24.231 17.0244C24.2235 17.0683 24.2257 17.1132 24.2374 17.1561C24.2491 17.199 24.27 17.2389 24.2986 17.2729C24.3273 17.3069 24.363 17.3342 24.4033 17.353C24.4436 17.3718 24.4876 17.3815 24.532 17.3816H25.1219C25.4933 17.3816 25.8581 17.2836 26.1794 17.0974C26.5007 16.9112 26.7671 16.6434 26.9517 16.3212L29.8174 11.3192H32.706C33.3676 11.3192 34.0213 11.1779 34.6238 10.9045L34.7332 10.855C34.9479 10.7576 35.1299 10.6004 35.2576 10.4023C35.3853 10.2041 35.4532 9.97339 35.4532 9.73766C35.4532 9.50194 35.3853 9.27121 35.2576 9.07306C35.1299 8.87491 34.9479 8.71774 34.7332 8.62033L34.6238 8.57078C34.0214 8.29742 33.3675 8.15605 32.706 8.15616H29.8174Z" stroke="#609AA7" stroke-width="1.05433" stroke-linecap="round" stroke-linejoin="round"/>
<line y1="9.84393" x2="17.0413" y2="9.84393" stroke="#609AA7" stroke-width="1.05433"/>
<path d="M55.6699 9.46094L55.627 9.50293L55.6387 9.51367L53.2236 12.0146L52.4658 11.2822L53.709 9.99414H37.3887V8.93945H53.6572L52.4453 7.72754L53.1914 6.98242L55.6699 9.46094Z" fill="#609AA7"/>
</svg>
